# xmcd
#
# Track frame offsets:
#	150
#	17243
#	36202
#	54045
#	73031
#	95086
#	113061
#	130949
#	148192
#	165285
#	184244
#	202087
#	221073
#	243128
#	261103
#	278991
#
# Disc length: 3949 seconds
#
# Revision: 0
# Processed by: cddbd v1.5.2PL0 Copyright (c) Steve Scherf et al.
# Submitted via: audiograbber 1.83.01
#
DISCID=ee0f6b10
DTITLE=Compilation - CB60406
DYEAR=2009
DGENRE=Country
TTITLE0=Kieth, Toby - Lost You Anyway
TTITLE1=Rich, John - Shuttin' Detroit Down
TTITLE2=Broussard, Marc and LeAnn Rimes - When It's Good
TTITLE3=Shelton, Blake - I'll Just Hold On
TTITLE4=Johnson, Jamey - High Cost Of Living
TTITLE5=Harp, Jessica - Boy Like Me
TTITLE6=Green, Pat - Country Star
TTITLE7=Moore, Justin - Small Town USA
TTITLE8=Kieth, Toby - Lost You Anyway
TTITLE9=Rich, John - Shuttin' Detroit Down
TTITLE10=Broussard, Marc and LeAnn Rimes - When It's Good
TTITLE11=Shelton, Blake - I'll Just Hold On
TTITLE12=Johnson, Jamey - High Cost Of Living
TTITLE13=Harp, Jessica - Boy Like Me
TTITLE14=Green, Pat - Country Star
TTITLE15=Moore, Justin - Small Town USA
EXTD=
EXTT0=
EXTT1=
EXTT2=
EXTT3=
EXTT4=
EXTT5=
EXTT6=
EXTT7=
EXTT8=
EXTT9=
EXTT10=
EXTT11=
EXTT12=
EXTT13=
EXTT14=
EXTT15=
PLAYORDER=
